<svg version="1.1" id="Layer_1" xmlns="http://www.w3.org/2000/svg" xmlns:xlink="http://www.w3.org/1999/xlink" x="0px" y="0px"
	 viewBox="0 0 32 32" style="enable-background:new 0 0 32 32;" xml:space="preserve">
	<style>
		@media (prefers-color-scheme: dark) {
			.a { fill: #FFFFFF }
		}
   	</style>
	<g>
		<path class="a" fill="#000000" d="M9.38,7.95c1.09,0,1.98-0.89,1.98-1.97C11.36,4.89,10.47,4,9.38,4C8.29,4,7.41,4.89,7.41,5.98
			C7.41,7.06,8.29,7.95,9.38,7.95z"/>
		<path class="a" fill="#000000" d="M11.12,19.09v-8.38c0-0.04-0.03-0.07-0.07-0.07h-5.1c-0.04,0-0.07,0.03-0.07,0.07v2.49c0,0.04,0.03,0.07,0.07,0.07h1.79
			v5.89H5.96c-0.04,0-0.07,0.03-0.07,0.07v2.38c0,0.04,0.03,0.07,0.07,0.07h6.84c0.04,0,0.07-0.03,0.07-0.07v-2.44
			c0-0.04-0.03-0.07-0.07-0.07H11.12z"/>
		<path class="a" fill="#000000" d="M21.18,10.64h-7.93c-0.04,0-0.07,0.03-0.07,0.07v2.51c0,0.04,0.03,0.07,0.07,0.07h1.86v12.17h-1.86
			c-0.04,0-0.07,0.03-0.07,0.07v2.41c0,0.04,0.03,0.07,0.07,0.07h7.27c0.04,0,0.07-0.03,0.07-0.07v-2.38c0-0.04-0.03-0.07-0.07-0.07
			H18.6v-3.82h2.53c2.81,0,4.95-2.36,4.97-5.49C26.12,13.04,24,10.65,21.18,10.64z M20.53,19.1H18.6v-5.82h1.9
			c0.01,0.01,0.02,0.01,0.04,0.01c1.48,0.15,2.6,1.4,2.6,2.9C23.14,17.71,22.02,18.95,20.53,19.1z"/>
	</g>
</svg>
